Coordinates
version=1
nRows=13
nColumns=40
inDegrees=yes

Units are S.I. units (second, meters, Newtons, ...)
If the header above contains a line with 'inDegrees', this indicates whether rotational values are in degrees (yes) or radians (no).

endheader
time	pelvis_tilt	pelvis_list	pelvis_rotation	pelvis_tx	pelvis_ty	pelvis_tz	hip_flexion_r	hip_adduction_r	hip_rotation_r	knee_angle_r	knee_angle_r_beta	ankle_angle_r	subtalar_angle_r	mtp_angle_r	hip_flexion_l	hip_adduction_l	hip_rotation_l	knee_angle_l	knee_angle_l_beta	ankle_angle_l	subtalar_angle_l	mtp_angle_l	lumbar_extension	lumbar_bending	lumbar_rotation	arm_flex_r	arm_add_r	arm_rot_r	elbow_flex_r	pro_sup_r	wrist_flex_r	wrist_dev_r	arm_flex_l	arm_add_l	arm_rot_l	elbow_flex_l	pro_sup_l	wrist_flex_l	wrist_dev_l
      0.00500000	    -20.69887466	     14.18729945	     21.31367435	     -0.83049769	      0.88679193	      0.19624857	     54.62908472	    -37.45550799	    -38.93036947	     21.54345106	      0.37600415	      0.79934263	     28.87680806	      0.00000000	     -4.23318519	     18.44130095	     11.81930686	      0.26742611	      0.00466747	     -5.30565851	     -0.36878342	      0.00000000	     12.16954973	    -18.03864481	    -11.45082144	     43.86455931	    -16.58828864	     43.86455931	     75.44600116	     44.86515090	      0.00000000	      0.00000000	     43.86455931	    -16.58828864	     43.86455931	     75.44600116	     44.86515090	      0.00000000	      0.00000000
      0.01000000	    -20.51028321	     14.21685239	     21.39745174	     -0.82556030	      0.88690386	      0.19659863	     54.27924241	    -37.53312351	    -38.88996926	     21.75782845	      0.37974574	      0.73067000	     28.48786134	      0.00000000	     -4.71828109	     18.24988390	     12.07578238	      0.27304955	      0.00476561	     -5.75010101	     -0.53542580	      0.00000000	     11.96309600	    -17.97104325	    -11.55472210	     43.86560517	    -16.58587061	     43.86560517	     75.44467225	     44.86626406	      0.00000000	      0.00000000	     43.86560517	    -16.58587061	     43.86560517	     75.44467225	     44.86626406	      0.00000000	      0.00000000
      0.01500000	    -20.25061117	     14.23763793	     21.45409534	     -0.81997458	      0.88710148	      0.19710029	     53.81211651	    -37.56701855	    -38.85489670	     21.98612734	      0.38373031	      0.67184515	     28.07855760	      0.00000000	     -5.29755069	     17.99720146	     12.32572299	      0.27784603	      0.00484933	     -6.22425752	     -0.67613273	      0.00000000	     11.70455901	    -17.87187625	    -11.64784105	     43.86655650	    -16.58367228	     43.86655650	     75.44346563	     44.86727009	      0.00000000	      0.00000000	     43.86655650	    -16.58367228	     43.86655650	     75.44346563	     44.86727009	      0.00000000	      0.00000000
      0.02000000	    -19.89817413	     14.26451551	     21.47338529	     -0.81382330	      0.88746192	      0.19777673	     53.20495245	    -37.54539160	    -38.82673977	     22.20113795	      0.38748295	      0.58676758	     27.59523672	      0.00000000	     -5.98374567	     17.69372554	     12.61029713	      0.28640286	      0.00499867	     -6.79329217	     -0.87808069	      0.00000000	     11.32444632	    -17.75974714	    -11.74121083	     43.86769313	    -16.58104748	     43.86769313	     75.44202721	     44.86846260	      0.00000000	      0.00000000	     43.86769313	    -16.58104748	     43.86769313	     75.44202721	     44.86846260	      0.00000000	      0.00000000
      0.02500000	    -19.54155725	     14.27402538	     21.49181278	     -0.80712951	      0.88783490	      0.19840690	     52.54815999	    -37.50316274	    -38.77743555	     22.40173841	      0.39098409	      0.44895912	     27.08734054	      0.00000000	     -6.69005043	     17.36592980	     12.84376932	      0.29128540	      0.00508389	     -7.39043930	     -1.10588732	      0.00000000	     11.00366963	    -17.58573721	    -11.85042985	     43.86887301	    -16.57832441	     43.86887301	     75.44053712	     44.86969122	      0.00000000	      0.00000000	     43.86887301	    -16.57832441	     43.86887301	     75.44053712	     44.86969122	      0.00000000	      0.00000000
      0.03000000	    -19.42359406	     14.21075994	     21.46400991	     -0.79980840	      0.88773809	      0.19911236	     52.23150322	    -37.42269404	    -38.68053619	     22.71716600	      0.39648934	      0.24880767	     26.78005469	      0.00000000	     -7.15020139	     17.03227448	     13.01986527	      0.30332700	      0.00529405	     -7.86962936	     -1.07009559	      0.00000000	     11.02631757	    -17.46091220	    -11.91019207	     43.86918499	    -16.57760464	     43.86918499	     75.44014361	     44.87001460	      0.00000000	      0.00000000	     43.86918499	    -16.57760464	     43.86918499	     75.44014361	     44.87001460	      0.00000000	      0.00000000
      0.03500000	    -18.74452563	     14.29636079	     21.44439061	     -0.79245454	      0.88874293	      0.20006254	     51.12081762	    -37.32518281	    -38.66367444	     22.89196903	      0.39954023	      0.03630736	     25.83187867	      0.00000000	     -8.20115546	     16.64194568	     13.35405157	      0.31203674	      0.00544607	     -8.90082717	     -1.68647295	      0.00000000	     10.27274216	    -17.22323589	    -11.98064079	     43.87063174	    -16.57426882	     43.87063174	     75.43832243	     44.87150363	      0.00000000	      0.00000000	     43.87063174	    -16.57426882	     43.87063174	     75.43832243	     44.87150363	      0.00000000	      0.00000000
      0.04000000	    -18.24211530	     14.19535876	     21.36605036	     -0.78462699	      0.88945153	      0.20101496	     50.18452422	    -37.05115286	    -38.69902895	     23.02188663	      0.40180772	     -0.36231454	     25.14596291	      0.00000000	     -9.00799028	     16.12384764	     13.61695353	      0.32332954	      0.00564317	     -9.82455602	     -2.14160693	      0.00000000	      9.83436658	    -16.90799836	    -12.12582140	     43.87320547	    -16.56834188	     43.87320547	     75.43509638	     44.87411264	      0.00000000	      0.00000000	     43.87320547	    -16.56834188	     43.87320547	     75.43509638	     44.87411264	      0.00000000	      0.00000000
      0.04500000	    -17.89368859	     14.22014123	     21.29809107	     -0.77646371	      0.88986471	      0.20205445	     49.55796952	    -36.95631334	    -38.59717239	     23.40473640	      0.40848971	     -0.67768818	     24.40433473	      0.00000000	     -9.70567125	     15.78403210	     13.75413948	      0.34761876	      0.00606709	    -10.82289964	     -2.39917621	      0.00000000	      9.55015810	    -16.76710789	    -12.13377552	     43.87432964	    -16.56575570	     43.87432964	     75.43369213	     44.87523838	      0.00000000	      0.00000000	     43.87432964	    -16.56575570	     43.87432964	     75.43369213	     44.87523838	      0.00000000	      0.00000000
      0.05000000	    -17.38914838	     14.17985614	     21.16211108	     -0.76816028	      0.89061937	      0.20318847	     48.66700351	    -36.69762121	    -38.58302814	     23.62782732	      0.41238338	     -1.14634520	     23.62292756	      0.00000000	    -10.53144976	     15.32994649	     14.07551849	      0.36174823	      0.00631370	    -12.00130019	     -3.02829574	      0.00000000	      9.13604300	    -16.48793286	    -12.14640269	     43.87610556	    -16.56167356	     43.87610556	     75.43148016	     44.87699842	      0.00000000	      0.00000000	     43.87610556	    -16.56167356	     43.87610556	     75.43148016	     44.87699842	      0.00000000	      0.00000000
      0.05500000	    -17.00638243	     14.17470952	     21.01960403	     -0.75958146	      0.89118377	      0.20430473	     47.98128517	    -36.52446569	    -38.52579552	     23.99374934	      0.41876993	     -1.61690258	     22.86286057	      0.00000000	    -11.22392866	     14.96682801	     14.19533640	      0.39909248	      0.00696548	    -13.26056722	     -3.44928350	      0.00000000	      8.88958945	    -16.29972811	    -12.14316091	     43.87723591	    -16.55907764	     43.87723591	     75.43007648	     44.87810683	      0.00000000	      0.00000000	     43.87723591	    -16.55907764	     43.87723591	     75.43007648	     44.87810683	      0.00000000	      0.00000000
      0.06000000	    -16.48074423	     14.07540540	     20.83542202	     -0.75105444	      0.89210702	      0.20554826	     47.04295056	    -36.16203565	    -38.53481884	     24.18513732	      0.42211028	     -2.25431652	     22.06981169	      0.00000000	    -12.01502284	     14.47406915	     14.48138262	      0.41636396	      0.00726692	    -14.67589884	     -4.27330185	      0.00000000	      8.45651795	    -15.92759159	    -12.11481146	     43.87940912	    -16.55409149	     43.87940912	     75.42738663	     44.88021302	      0.00000000	      0.00000000	     43.87940912	    -16.55409149	     43.87940912	     75.42738663	     44.88021302	      0.00000000	      0.00000000
      0.06500000	    -16.09132366	     14.08088908	     20.60358310	     -0.74227612	      0.89279526	      0.20693124	     46.39222317	    -35.93236298	    -38.46190045	     24.59300873	      0.42922898	     -2.82275454	     21.29550382	      0.00000000	    -12.66187244	     14.14877060	     14.48051412	      0.47616627	      0.00831067	    -16.20824313	     -4.76331427	      0.00000000	      8.20398953	    -15.76908239	    -12.06538923	     43.88056253	    -16.55144783	     43.88056253	     75.42596390	     44.88131752	      0.00000000	      0.00000000	     43.88056253	    -16.55144783	     43.88056253	     75.42596390	     44.88131752	      0.00000000	      0.00000000
